<svg fill="#F22F46" role="img" viewBox="0 0 24 24" xmlns="http://www.w3.org/2000/svg"><title>Twilio</title><path d="M12 0C5.373 0 0 5.373 0 12s5.373 12 12 12 12-5.373 12-12S18.627 0 12 0zm0 20.8c-4.86 0-8.8-3.94-8.8-8.8S7.14 3.2 12 3.2 20.8 7.14 20.8 12s-3.94 8.8-8.8 8.8zm4.16-11.36c0 1.148-.932 2.08-2.08 2.08s-2.08-.932-2.08-2.08.932-2.08 2.08-2.08 2.08.932 2.08 2.08zm0 5.12c0 1.148-.932 2.08-2.08 2.08s-2.08-.932-2.08-2.08.932-2.08 2.08-2.08 2.08.932 2.08 2.08zM9.92 9.44c0 1.148-.932 2.08-2.08 2.08s-2.08-.932-2.08-2.08.932-2.08 2.08-2.08 2.08.932 2.08 2.08zm0 5.12c0 1.148-.932 2.08-2.08 2.08s-2.08-.932-2.08-2.08.932-2.08 2.08-2.08 2.08.932 2.08 2.08z"/></svg>
