<?xml version="1.0" encoding="UTF-8"?> <svg xmlns="http://www.w3.org/2000/svg" width="279" height="50" viewBox="0 0 279 50" fill="none"><g clip-path="url(#clip0_2219_1776)"><path d="M85.0542 42.2062V21.9536H81.2422V17.1237H85.0542V14.5723C85.0542 12.4842 85.6524 10.8848 86.8488 9.76775C88.0452 8.65072 89.7635 8.0922 92.0036 8.0922H95.7647V12.8777H93.4355C91.9145 12.8777 91.1508 13.7281 91.1508 15.4227V17.1237H95.7647V21.9536H91.1508V42.2062H85.0542ZM99.8503 13.4172C99.1312 12.7888 98.7748 11.9574 98.7748 10.9165C98.7748 9.93277 99.1312 9.11403 99.8503 8.46031C100.569 7.8066 101.448 7.47656 102.491 7.47656C103.535 7.47656 104.381 7.8066 105.113 8.46031C105.845 9.11403 106.214 9.93277 106.214 10.9165C106.214 11.9003 105.858 12.7571 105.139 13.3981C104.42 14.0391 103.541 14.3565 102.491 14.3565C101.441 14.3565 100.563 14.0455 99.8503 13.4172ZM105.495 42.2062H99.443V17.13H105.495V42.2062Z" fill="#EFEFE5"></path><path d="M119.432 41.8953C118.324 41.3622 117.281 40.4038 116.294 39.0329V42.2063H110.242V8.09863H116.294V20.3035C117.249 18.9326 118.286 17.9742 119.413 17.4221C120.533 16.8699 121.869 16.597 123.422 16.597C125.605 16.597 127.533 17.1492 129.207 18.2471C130.88 19.3515 132.179 20.8938 133.108 22.874C134.031 24.8542 134.495 27.1136 134.495 29.646C134.495 32.1783 134.031 34.4378 133.108 36.418C132.179 38.3982 130.88 39.9405 129.207 41.0448C127.533 42.1492 125.605 42.695 123.422 42.695C121.869 42.695 120.539 42.4284 119.432 41.8889V41.8953ZM126.648 35.301C127.813 33.8285 128.398 31.9435 128.398 29.646C128.398 27.3484 127.813 25.4698 126.648 23.991C125.484 22.5122 123.944 21.776 122.035 21.776C120.125 21.776 118.56 22.5058 117.351 23.9656C116.142 25.4254 115.537 27.3167 115.537 29.6396C115.537 31.9626 116.142 33.8602 117.351 35.32C118.56 36.7798 120.125 37.5097 122.035 37.5097C123.944 37.5097 125.484 36.7734 126.648 35.2946V35.301Z" fill="#EFEFE5"></path><path d="M143.003 41.045C141.062 39.9407 139.56 38.4111 138.497 36.4626C137.434 34.5142 136.906 32.2991 136.906 29.8239C136.906 27.5327 137.377 25.3748 138.319 23.3628C139.261 21.3509 140.68 19.7198 142.577 18.4695C144.473 17.2192 146.796 16.5908 149.545 16.5908C151.817 16.5908 153.911 17.0605 155.82 17.9998C157.735 18.9391 159.269 20.3862 160.434 22.3347C161.598 24.2895 162.184 26.7076 162.184 29.5954V30.8901H143.181C143.27 31.931 143.582 32.9148 144.123 33.8414C144.721 35.0029 145.523 35.9041 146.522 36.5451C147.521 37.1862 148.667 37.5098 149.952 37.5098C151.327 37.5098 152.511 37.1608 153.491 36.4563C154.477 35.7581 155.177 34.8569 155.597 33.7525H161.783C160.975 36.4055 159.555 38.5571 157.525 40.2136C155.495 41.8701 152.892 42.6952 149.73 42.6952C147.19 42.6952 144.95 42.143 143.009 41.045H143.003ZM156.004 26.3839C155.883 25.4319 155.572 24.6576 155.063 24.061C154.496 23.1978 153.745 22.5314 152.822 22.0681C151.9 21.6048 150.862 21.3763 149.73 21.3763C148.597 21.3763 147.572 21.5984 146.662 22.0491C145.752 22.4933 145.008 23.1661 144.441 24.061C143.907 24.7147 143.576 25.489 143.455 26.3839H156.004Z" fill="#EFEFE5"></path><path d="M164.992 42.2065V17.1304H171.044V20.6592C171.967 19.3771 173.004 18.4695 174.156 17.9301C175.308 17.3969 176.657 17.124 178.216 17.124H178.936V22.9313H177.548C175.633 22.9313 174.137 23.4391 173.068 24.4546C172.381 25.14 171.872 26.0095 171.547 27.0694C171.216 28.1294 171.057 28.9417 171.057 30.5792V42.2002H165.005L164.992 42.2065Z" fill="#EFEFE5"></path><path d="M196.837 13.4172C196.118 12.7888 195.762 11.9574 195.762 10.9165C195.762 9.93277 196.118 9.11403 196.837 8.46031C197.556 7.8066 198.435 7.47656 199.478 7.47656C200.522 7.47656 201.368 7.8066 202.1 8.46031C202.832 9.11403 203.195 9.93277 203.195 10.9165C203.195 11.9003 202.838 12.7571 202.119 13.3981C201.4 14.0391 200.522 14.3565 199.472 14.3565C198.422 14.3565 197.544 14.0455 196.831 13.4172H196.837ZM202.482 42.2062H196.43V17.13H202.482V42.2062Z" fill="#EFEFE5"></path><path d="M205.936 42.206V17.1298H211.988V20.3032C212.943 18.9894 213.98 18.0437 215.106 17.4662C216.227 16.8823 217.474 16.5967 218.848 16.5967C220.522 16.5967 221.941 16.9394 223.106 17.6249C224.271 18.3103 225.047 19.3068 225.435 20.6205C226.243 19.2179 227.255 18.2024 228.483 17.5614C229.712 16.9204 231.156 16.603 232.83 16.603C235.579 16.603 237.641 17.4091 239.016 19.0148C240.39 20.6269 241.078 22.8737 241.078 25.7678V42.2187H235.026V26.5294C235.026 23.2227 233.708 21.5662 231.08 21.5662C229.826 21.5662 228.821 21.9661 228.076 22.7721C227.51 23.4004 227.115 24.2065 226.886 25.1839C226.663 26.1676 226.549 27.418 226.549 28.9412V42.2187H220.497V26.5294C220.497 24.8602 220.153 23.6162 219.466 22.7975C218.778 21.9788 217.792 21.5662 216.507 21.5662C215.221 21.5662 214.235 21.9978 213.458 22.861C212.949 23.4576 212.574 24.2255 212.338 25.1648C212.096 26.1042 211.982 27.3608 211.982 28.9412V42.2187H205.93L205.936 42.206Z" fill="#EFEFE5"></path><path d="M250.542 41.045C248.601 39.9407 247.099 38.4111 246.036 36.4626C244.974 34.5142 244.445 32.2991 244.445 29.8239C244.445 27.5327 244.916 25.3748 245.858 23.3628C246.8 21.3509 248.219 19.7198 250.116 18.4695C252.012 17.2192 254.335 16.5908 257.084 16.5908C259.356 16.5908 261.45 17.0605 263.359 17.9998C265.274 18.9391 266.808 20.3862 267.973 22.3347C269.137 24.2895 269.723 26.7076 269.723 29.5954V30.8901H250.72C250.809 31.931 251.121 32.9148 251.662 33.8414C252.26 35.0029 253.062 35.9041 254.061 36.5451C255.06 37.1862 256.206 37.5098 257.491 37.5098C258.866 37.5098 260.05 37.1608 261.03 36.4563C262.016 35.7581 262.716 34.8569 263.136 33.7525H269.322C268.514 36.4055 267.095 38.5571 265.064 40.2136C263.034 41.8701 260.432 42.6952 257.269 42.6952C254.729 42.6952 252.489 42.143 250.548 41.045H250.542ZM263.543 26.3839C263.423 25.4319 263.111 24.6576 262.602 24.061C262.035 23.1978 261.284 22.5314 260.362 22.0681C259.439 21.6048 258.401 21.3763 257.269 21.3763C256.136 21.3763 255.111 21.5984 254.201 22.0491C253.291 22.4933 252.547 23.1661 251.98 24.061C251.446 24.7147 251.115 25.489 250.994 26.3839H263.543Z" fill="#EFEFE5"></path><path d="M193.208 17.6632H193.182V17.1301H188.365V8.09863H182.312V36.71C182.312 40.3784 184.266 42.2063 188.186 42.2063H193.163V37.1987H190.427C189.561 37.1987 189.001 37.0019 188.746 36.6148C188.492 36.2276 188.365 35.65 188.365 34.8694V22.9374H193.182V22.4868H193.208V17.6569V17.6632Z" fill="#EFEFE5"></path><path d="M271.981 21.7059H271.275V17.7646H269.805V17.1299H273.464V17.7646H271.988V21.7059H271.981Z" fill="#EFEFE5"></path><path d="M274.781 21.7059H274.074V17.1299H275.29L276.378 20.8428L277.473 17.1299H278.688V21.7059H277.982V17.6186L276.741 21.7059H276.041L274.793 17.6503V21.7059H274.781Z" fill="#EFEFE5"></path><path d="M34.6507 49.9997C31.2269 50.0632 27.8604 48.87 24.6339 47.5625C20.0709 45.7918 17.7863 44.3955 16.2844 40.3653C15.8071 38.9309 15.7244 37.8583 15.4316 36.3351C14.8334 33.4155 14.1588 29.9819 12.4788 27.6717C12.116 27.2909 10.6078 24.4983 9.76772 22.1817C9.15042 20.5633 8.87677 19.1416 8.43129 17.5486C7.48943 14.5148 6.55394 12.084 5.35752 10.2815C4.47929 9.47546 3.27015 9.02484 2.25828 8.28226C1.24642 7.6222 0.355469 6.80346 0.0818199 5.62296C-0.618212 2.20839 3.11105 0.17107 6.09573 0.0377875C12.6124 -0.463609 17.2835 4.25205 19.7082 8.39016C20.2364 9.12639 20.9237 10.7258 21.9165 10.7702C22.4447 10.7829 23.0047 10.1546 23.5774 9.64048C25.4803 7.9078 27.9813 5.7499 29.5214 4.77884C30.3232 4.2584 31.2523 3.90298 32.2069 3.69988C34.3961 3.23657 36.7826 3.61738 38.5009 5.00732C39.2645 5.55315 39.6845 6.5242 40.4737 7.04464C40.9255 7.33659 41.5046 7.39371 42.0328 7.48892C43.6811 7.79356 45.0112 8.73923 45.9212 10.1355C46.424 10.8527 46.6149 11.8872 47.6013 12.0459C52.5715 12.5537 51.4578 16.4252 54.1752 13.1693C55.3144 11.8745 56.5426 10.5163 57.5926 9.26602C58.7827 7.86972 60.3928 6.60671 62.3083 6.47978C65.2357 6.25764 67.9277 9.08831 67.8258 11.8872C67.7558 14.2419 66.2412 16.2475 64.8984 18.05C63.002 20.5696 60.6155 23.6415 58.5663 26.2183C56.8862 28.3 54.7925 30.6801 53.6788 33.0538C52.7433 35.2752 52.1642 37.5156 50.9614 39.6608C47.9004 45.1444 42.0647 49.8728 34.7016 49.9934H34.6443L34.6507 49.9997ZM16.838 24.8601C19.0209 27.9573 20.0391 32.508 20.771 36.6714C20.9301 37.8012 21.2673 39.1721 21.9356 40.0479C22.5083 40.8476 23.0683 41.1332 23.9338 41.5712C25.5694 42.3328 27.5804 43.1071 29.3241 43.7291C35.1089 45.9314 40.3528 44.332 44.4129 39.9591C47.7031 36.5191 47.7986 32.0827 50.3887 28.3825C51.6296 26.4785 53.0615 24.7903 54.4743 23.0766C56.1544 20.9885 57.8599 18.8052 59.5336 16.66C60.4501 15.4605 61.3092 14.3942 62.1047 13.1883C62.2701 12.9472 62.4865 12.5981 62.5374 12.3632C62.3783 12.2807 61.4301 13.5184 61.1246 13.823C59.7182 15.4034 55.8044 19.789 53.6152 22.2325C52.737 23.2353 51.8587 24.1302 50.8914 25.0568C50.1405 25.774 49.3577 26.5293 48.4986 26.7578C46.6721 27.329 44.7311 25.5519 45.2148 23.6859C45.5012 22.2262 47.3213 21.2868 48.0022 20.0936C48.3649 19.4526 48.3904 18.2531 47.7858 17.7644C46.1758 16.9139 44.5593 18.9322 43.5347 20.1508C42.612 21.4011 41.7592 22.5181 40.2064 22.3594C38.609 22.2452 37.4317 20.557 37.9281 19.021C38.4818 17.2503 40.2382 15.7207 41.3837 14.3942C41.9947 13.5374 41.1992 12.6615 40.2573 12.7377C39.2773 12.7885 38.7618 13.3597 37.9536 14.1213C36.9608 15.0543 36.1144 16.1586 35.3825 17.3074C34.5998 18.6847 32.7351 19.3257 31.386 18.3483C28.2486 16 32.576 11.8428 34.3261 10.053C34.5552 9.80549 35.0071 9.42469 34.6889 9.10735C33.9697 8.65038 32.697 8.98676 32.016 9.4945C30.5141 10.529 27.4594 13.1947 24.7357 15.7588C23.8002 16.6346 22.9601 17.4661 22.1583 18.4054C21.2673 19.3638 20.8346 20.411 19.7209 21.0012C17.8945 21.9596 15.5844 20.3602 15.9216 18.3102C16.0298 17.5041 16.4944 16.7997 16.9971 16.1269C17.2262 15.8032 17.449 15.4161 17.4044 15.0162C17.3663 14.5275 16.9462 14.115 16.628 13.7532C15.9407 13.0043 15.3616 12.0332 14.8652 11.2462C13.6179 9.32314 12.2051 7.38737 9.99046 6.18782C9.5768 5.96569 9.07405 5.77528 8.71767 5.66739C8.41857 5.57853 8.2531 5.57219 8.26583 5.65469C8.27856 5.78798 8.76858 6.14974 9.02314 6.45439C10.4105 8.39651 12.0842 11.9317 13.3442 16.1777C14.0761 19.1543 15.0689 22.3531 16.7999 24.8474L16.819 24.8728L16.838 24.8601Z" fill="#EFEFE5"></path><path d="M63.563 10.2563C62.0038 9.19005 60.4383 11.4812 59.4901 12.5094C57.39 14.8197 52.3434 20.665 50.517 22.5437C49.7406 23.2228 48.4423 24.9809 47.4432 24.6445C46.4568 23.8575 48.7096 22.2962 49.206 21.6678C49.7851 21.0903 49.976 20.7412 50.0651 19.9161C50.4597 16.9331 48.6078 14.7816 45.5404 15.8669C44.2421 16.2667 43.593 17.1616 42.683 18.0819C42.1547 18.6341 41.6965 19.3513 41.1556 19.8717C40.7165 20.2842 40.2392 20.3858 40.0037 20.005C39.8001 19.6686 39.9783 19.0593 40.3538 18.5071C41.0983 17.3965 42.2502 16.2604 42.9057 15.6638C43.1475 15.4353 43.3639 15.2068 43.4912 14.9022C43.8857 13.6582 43.3957 12.1286 42.2693 11.3226C41.1874 10.599 39.2273 10.6435 38.1773 11.348C37.3945 11.9699 35.6572 13.4932 34.4289 15.2893C34.2062 15.6067 33.9962 15.943 33.7416 16.2286C33.2771 16.7935 32.6279 16.9204 32.4498 16.2921C32.3225 15.6955 32.7043 15.0735 33.1307 14.4325C34.2889 12.7252 35.8417 11.2972 36.7836 10.4785C36.9681 10.3071 37.1145 10.1167 37.1782 9.86916C37.5027 7.9207 35.2244 6.71481 33.4043 7.0131C32.5961 7.10196 31.8134 7.38122 31.1642 7.81915C29.1151 9.16467 25.0676 12.8902 22.9548 14.9022C22.1084 15.6892 21.4402 16.4317 20.6892 17.3139C20.0274 18.0121 19.0282 19.8971 18.2391 18.8689C17.8764 17.8217 19.3528 16.6221 19.9001 15.8351C20.091 15.5876 20.2883 15.2957 20.2565 14.9783C20.1928 14.4325 19.5946 13.9628 19.2255 13.544C18.5637 12.8458 18.0291 12.2873 17.5773 11.6209C16.5527 10.0849 15.8654 8.79655 14.4589 7.22255C12.5879 5.0456 9.88962 3.47794 6.96222 3.4716C5.88035 3.42717 4.25118 3.68739 3.62115 4.41092C2.93385 5.18523 6.23036 6.62595 6.77766 7.00676C7.98681 7.58432 8.22227 8.43479 8.81412 9.46931C10.1696 12.1159 11.3088 15.0354 12.0597 18.12C12.4416 20.2525 14.2744 24.3652 15.1208 25.533C17.4118 28.6049 18.3664 33.4284 18.99 37.0207C19.3528 39.9402 20.6383 42.2124 23.4321 43.3358C31.4824 47.0613 37.4709 48.153 43.7266 43.0438C47.615 40.0101 48.8051 36.4685 50.3833 32.0829C51.6052 29.2205 53.8262 26.6628 55.7226 24.3335C57.1163 22.6072 58.2619 21.1157 59.7065 19.2751C60.9856 17.6313 62.252 15.9748 63.003 14.9275C63.9258 13.6328 65.3449 11.4495 63.5885 10.2754L63.5566 10.25L63.563 10.2563ZM34.6899 44.6686C34.2889 44.6813 33.7098 44.7257 33.3725 44.4211C32.8634 43.9768 33.2452 43.12 33.9007 43.1263C34.2698 43.12 34.658 43.0882 35.0081 43.2279C35.7399 43.5452 35.5172 44.6051 34.7408 44.6686H34.6962H34.6899ZM45.2285 38.9438C44.694 40.1306 40.5956 43.8499 37.0063 44.4147C36.0517 44.4845 35.7781 43.5198 36.6499 43.0565C37.0254 42.828 37.5409 42.663 37.9736 42.4853C41.0029 41.3111 43.173 38.9946 43.7521 38.3409C44.2294 37.6617 45.3494 38.0108 45.2349 38.9121V38.9438H45.2285Z" fill="#FBE639"></path><path d="M35.4534 43.9199C35.4534 44.415 34.9189 44.7196 34.4543 44.6752C33.9643 44.6879 33.3024 44.6308 33.156 44.0722C32.9842 43.4947 33.557 43.0441 34.1043 43.1075C34.6579 43.0758 35.4216 43.1837 35.4534 43.8692V43.9199Z" fill="#01D9F3"></path><path d="M45.2265 38.9432C44.6919 40.1301 40.5935 43.8493 37.0043 44.4141C36.0497 44.484 35.776 43.5192 36.6479 43.0559C37.0234 42.8274 37.5389 42.6624 37.9716 42.4847C41.0008 41.3106 43.1709 38.994 43.7501 38.3403C44.2273 37.6612 45.3474 38.0102 45.2328 38.9115V38.9432H45.2265Z" fill="#01D9F3"></path><path d="M64.3453 9.00557C61.9015 7.23481 59.6232 9.77353 58.2168 11.5252C57.2749 12.5978 54.7103 15.4856 52.6993 17.7578C52.502 17.9863 52.1011 18.4242 51.8783 18.4179C51.6047 18.3861 51.5856 17.9799 51.5092 17.7514C51.3119 16.6217 50.5928 15.3016 49.4855 14.6288C48.3336 13.8799 47.1054 13.9624 45.9153 14.1084C45.0498 14.1845 45.1517 13.1183 44.9353 12.5344C44.6171 11.4554 43.898 10.3955 42.8479 9.81161C41.9442 9.29117 40.8305 9.2277 39.825 9.25944C39.0232 9.29117 38.6923 8.58033 38.3995 7.93931C37.4768 5.87025 34.9566 5.14037 32.8184 5.53387C31.9401 5.6862 31.1319 6.00354 30.4064 6.48589C28.7454 7.56485 26.0917 9.9195 24.0616 11.7855C23.7116 12.1091 23.3679 12.4265 23.0243 12.7502C22.5661 13.1627 22.2033 13.6133 21.8215 13.5943C21.1278 13.4927 20.6633 12.6867 20.1605 12.2297C18.8432 10.9413 18.1368 9.41176 17.1313 8.01547C14.5348 4.11219 9.93367 0.970532 4.74707 2.17007C3.16245 2.59531 1.34237 3.76947 2.12513 5.53387C2.50697 6.24471 3.32155 6.71438 4.02158 7.15865C4.66434 7.5585 5.33255 7.92661 5.98804 8.28838C6.78989 8.70092 6.98081 9.15154 7.34355 9.83065C7.79539 10.6811 8.19632 11.5379 8.59088 12.4519C9.21455 13.8926 9.85094 15.5999 10.3219 17.3072C10.7037 18.7098 10.9583 19.9728 11.4865 21.3755C12.5874 24.3204 13.5547 25.9134 14.5602 27.3732C16.1003 30.1277 16.654 32.6918 17.4177 36.6776C17.7549 39.3178 18.595 41.9581 20.7523 43.5384C22.076 44.5285 23.9089 45.214 25.6271 45.9121C28.1345 46.9213 30.9155 47.9177 33.4866 48.0574C40.3342 48.4889 46.0426 44.3064 49.1291 39.0703C50.2746 37.0838 50.8983 34.9893 51.6938 32.8822C52.3556 31.1939 53.622 29.3914 54.8503 27.8111C57.6122 24.4156 60.4633 20.8042 63.0788 17.3389C64.9117 14.9335 67.68 11.4999 64.3962 9.04999L64.3453 9.01191V9.00557ZM63.4352 14.3115C61.7615 16.7613 58.8468 20.36 56.734 23.0827C54.5321 25.9198 51.8211 28.7187 50.3701 32.1269C49.5109 34.3166 48.8873 36.5379 47.659 38.5753C44.3943 43.6908 38.5777 48.0066 30.6546 46.02C27.8927 45.2394 25.1307 44.1604 22.5852 42.9038C20.5423 41.8819 19.4732 39.8763 19.1105 37.6486C18.4359 33.8088 17.5577 28.8202 15.1266 25.5326C14.2802 24.3648 12.4411 20.2394 12.0656 18.1196C11.1301 14.4194 9.82549 11.0619 7.96085 7.97104C7.64902 7.50772 7.40083 7.33636 6.62443 6.92382C5.68893 6.38434 4.5116 5.82582 3.74157 5.09594C3.47428 4.81034 3.47428 4.57551 3.6652 4.37241C4.21886 3.74408 5.93076 3.4077 6.96808 3.47751C11.9447 3.49655 15.1394 7.5458 17.3922 11.3539C17.914 12.1599 18.4741 12.7629 19.2314 13.5562C19.5941 13.9751 20.1987 14.4448 20.2623 14.9906C20.2941 15.3079 20.0969 15.5999 19.9059 15.8474C19.4287 16.425 18.8241 17.0977 18.4295 17.7514C18.054 18.2719 18.035 19.3826 18.9386 19.1414C19.5241 18.951 20.0714 18.0497 20.6951 17.3262C21.446 16.4377 22.1142 15.7078 22.9606 14.9144C25.0607 12.9152 29.0827 9.21501 31.1383 7.85045C31.8001 7.39983 32.5893 7.11422 33.4166 7.01902C34.5621 6.87939 35.8412 7.18404 36.5667 7.98373C37.2158 8.70092 37.5595 9.84969 36.7895 10.4844C35.854 11.3412 32.5829 14.1972 32.4302 16.133C32.4811 16.8883 33.2384 16.8819 33.7475 16.2346C34.002 15.949 34.2121 15.6126 34.4348 15.2952C35.663 13.5054 37.394 11.9822 38.1832 11.3539C38.5968 11.0429 38.9786 10.954 39.5323 10.8779C40.436 10.7636 41.4924 10.7763 42.2752 11.3285C43.5734 12.2424 44.2416 14.54 42.9434 15.6443C42.2879 16.2536 41.2251 17.2754 40.3978 18.4623C39.4559 19.6682 40.0732 21.0264 41.3269 19.7189C42.1288 18.7669 42.9434 17.707 43.8852 16.8819C44.4962 16.3234 44.6935 16.1647 45.5462 15.8728C47.3981 15.181 49.4537 15.7649 49.9501 17.853C50.1346 18.5448 50.141 19.2683 50.0646 19.9665C49.9564 21.6166 48.2127 22.2957 47.4108 23.5714C47.0099 24.1553 47.1881 24.7837 47.8245 24.6948C48.9064 24.4536 50.1855 22.8035 51.051 22.0038C52.4638 20.4679 57.7713 14.4321 59.4959 12.509C60.3233 11.6014 61.2715 10.2559 62.4997 9.98297C63.327 9.84969 64.1862 10.5859 64.4089 11.3983C64.6253 12.4138 63.9571 13.4356 63.4607 14.2734L63.4352 14.3115Z" fill="#01D9F3"></path></g><defs><clipPath id="clip0_2219_1776"><rect width="278.676" height="50" fill="white"></rect></clipPath></defs></svg> 